<?xml version="1.0" encoding="UTF-8"?>
<svg version="1.1" xmlns="http://www.w3.org/2000/svg" width="128" height="128">
<path d="M0 0 C1.17534805 -0.01606293 2.35069611 -0.03212585 3.56166077 -0.04867554 C8.96656898 -0.09303878 14.37132896 -0.1346711 19.77636719 -0.15722656 C23.32844005 -0.17380001 26.8795715 -0.21850338 30.43129063 -0.26959801 C33.83231503 -0.31156351 37.23326245 -0.31843024 40.63452148 -0.33056641 C41.9025209 -0.35323578 43.17052032 -0.37590515 44.47694397 -0.39926147 C51.898324 -0.38159739 56.79513778 0.30493853 62.50561523 5.19287109 C63.74166504 6.22891479 63.74166504 6.22891479 65.00268555 7.28588867 C67.264433 9.51553014 69.52010897 11.74937269 71.75561523 14.00537109 C72.93897461 15.15875977 72.93897461 15.15875977 74.14624023 16.33544922 C74.90936523 17.09921875 75.67249023 17.86298828 76.45874023 18.64990234 C77.14097656 19.33028564 77.82321289 20.01066895 78.52612305 20.71166992 C83.29789986 26.69286969 85.10597203 32.11350743 84.97558594 39.7043457 C84.97887154 40.91800812 84.97887154 40.91800812 84.98222351 42.15618896 C84.984516 44.80296113 84.95839496 47.44859309 84.93139648 50.09521484 C84.92646867 51.94226224 84.92317234 53.78931465 84.9214325 55.6363678 C84.9138178 59.49203642 84.89332571 63.34733044 84.86230469 67.20288086 C84.82253665 72.15517694 84.80466214 77.10723089 84.79499531 82.05966854 C84.78505117 86.77988363 84.76515775 91.50003917 84.74389648 96.22021484 C84.73880286 97.57660726 84.73880286 97.57660726 84.73360634 98.96040154 C84.72208893 101.50272702 84.70358209 104.04489525 84.68261719 106.5871582 C84.67992828 107.34710587 84.67723938 108.10705353 84.67446899 108.89002991 C84.62052851 114.07795782 84.62052851 114.07795782 83.50561523 115.19287109 C80.74160116 115.29337323 78.00254297 115.32903185 75.23803711 115.32226562 C73.93812584 115.3248941 73.93812584 115.3248941 72.61195374 115.32757568 C69.7327375 115.33199534 66.85358215 115.32905581 63.97436523 115.32568359 C61.98278797 115.3263566 59.99121078 115.3273266 57.99963379 115.32858276 C53.81981629 115.33005989 49.64002011 115.3279047 45.46020508 115.32324219 C40.08958997 115.31754489 34.71902483 115.32082382 29.34841156 115.32681465 C25.23418803 115.33041986 21.11997644 115.32928186 17.00575256 115.32668686 C15.02490737 115.32601748 13.04406111 115.32684639 11.06321716 115.32916641 C8.29984648 115.33169229 5.53655789 115.32785327 2.77319336 115.32226562 C1.94614395 115.32428986 1.11909454 115.32631409 0.26698303 115.32839966 C-5.38012233 115.30713353 -5.38012233 115.30713353 -6.49438477 114.19287109 C-6.58765192 112.62740061 -6.61184059 111.05774337 -6.60791016 109.48950195 C-6.60783463 108.48853989 -6.60775909 107.48757782 -6.60768127 106.45628357 C-6.60251999 105.36775589 -6.5973587 104.27922821 -6.59204102 103.15771484 C-6.59062607 102.04932755 -6.58921112 100.94094025 -6.5877533 99.79896545 C-6.5821351 96.2427404 -6.56957951 92.68657726 -6.55688477 89.13037109 C-6.55187211 86.72607513 -6.5473088 84.32177817 -6.54321289 81.91748047 C-6.53215975 76.00925332 -6.51488293 70.10107272 -6.49438477 64.19287109 C-13.42438477 63.69787109 -13.42438477 63.69787109 -20.49438477 63.19287109 C-20.49438477 44.71287109 -20.49438477 26.23287109 -20.49438477 7.19287109 C-15.87438477 6.86287109 -11.25438477 6.53287109 -6.49438477 6.19287109 C-6.49438477 4.54287109 -6.49438477 2.89287109 -6.49438477 1.19287109 C-4.75529117 -0.5462225 -2.36822456 0.02929781 0 0 Z " fill="#E7EBF4" transform="translate(25.494384765625,6.80712890625)"/>
<path d="M0 0 C1.1947142 -0.00637985 2.38942841 -0.0127597 3.62034607 -0.01933289 C4.92133743 -0.02044571 6.2223288 -0.02155853 7.56274414 -0.02270508 C8.90173886 -0.02591608 10.24073321 -0.02928003 11.57972717 -0.03279114 C14.39007379 -0.03878841 17.20038962 -0.04063043 20.01074219 -0.04003906 C23.61686399 -0.03993742 27.22278897 -0.05358878 30.8288641 -0.07081127 C33.59547334 -0.08191492 36.36203477 -0.08395878 39.12866402 -0.08342934 C41.10629354 -0.08518822 43.08390813 -0.09603985 45.06150818 -0.10697937 C46.25937454 -0.10390274 47.45724091 -0.10082611 48.69140625 -0.09765625 C50.27906044 -0.09979378 50.27906044 -0.09979378 51.89878845 -0.10197449 C54.41040039 0.14526367 54.41040039 0.14526367 56.41040039 2.14526367 C36.61040039 2.14526367 16.81040039 2.14526367 -3.58959961 2.14526367 C-3.58959961 4.12526367 -3.58959961 6.10526367 -3.58959961 8.14526367 C8.62040039 8.14526367 20.83040039 8.14526367 33.41040039 8.14526367 C33.41040039 25.96526367 33.41040039 43.78526367 33.41040039 62.14526367 C21.20040039 62.14526367 8.99040039 62.14526367 -3.58959961 62.14526367 C-3.58959961 78.64526367 -3.58959961 95.14526367 -3.58959961 112.14526367 C24.13040039 112.14526367 51.85040039 112.14526367 80.41040039 112.14526367 C80.41040039 83.43526367 80.41040039 54.72526367 80.41040039 25.14526367 C84.08787422 28.8227375 84.63924687 31.69059818 84.67034912 36.89912415 C84.66472961 37.65928329 84.65911011 38.41944244 84.65332031 39.20263672 C84.65521866 40.01116089 84.657117 40.81968506 84.65907288 41.65270996 C84.66277301 44.32089989 84.65208961 46.98881675 84.64086914 49.65698242 C84.63967708 51.50975004 84.63922423 53.36251827 84.63948059 55.21528625 C84.63791719 59.09473462 84.62963655 62.97409051 84.61621094 66.85351562 C84.59918576 71.83730643 84.59539768 76.82099595 84.59615612 81.80481243 C84.59588487 85.62822952 84.59041159 89.45162427 84.58315468 93.27503395 C84.5799634 95.11353194 84.57799954 96.95203246 84.57726097 98.79053307 C84.57510427 101.3524245 84.56637572 103.91420618 84.55566406 106.47607422 C84.55611725 107.24230606 84.55657043 108.0085379 84.55703735 108.79798889 C84.5248777 114.03078636 84.5248777 114.03078636 83.41040039 115.14526367 C80.64638631 115.24576581 77.90732813 115.28142442 75.14282227 115.2746582 C73.842911 115.27728668 73.842911 115.27728668 72.51673889 115.27996826 C69.63752266 115.28438792 66.7583673 115.28144839 63.87915039 115.27807617 C61.88757312 115.27874918 59.89599593 115.27971918 57.90441895 115.28097534 C53.72460144 115.28245247 49.54480527 115.28029728 45.36499023 115.27563477 C39.99437513 115.26993747 34.62380999 115.2732164 29.25319672 115.27920723 C25.13897319 115.28281244 21.0247616 115.28167444 16.91053772 115.27907944 C14.92969253 115.27841006 12.94884627 115.27923897 10.96800232 115.28155899 C8.20463164 115.28408486 5.44134305 115.28024585 2.67797852 115.2746582 C1.85092911 115.27668243 1.0238797 115.27870667 0.17176819 115.28079224 C-5.47533717 115.25952611 -5.47533717 115.25952611 -6.58959961 114.14526367 C-6.68286677 112.57979319 -6.70705543 111.01013595 -6.703125 109.44189453 C-6.70304947 108.44093246 -6.70297394 107.4399704 -6.70289612 106.40867615 C-6.69773483 105.32014847 -6.69257355 104.23162079 -6.68725586 103.11010742 C-6.68584091 102.00172012 -6.68442596 100.89333282 -6.68296814 99.75135803 C-6.67734994 96.19513298 -6.66479436 92.63896984 -6.65209961 89.08276367 C-6.64708695 86.6784677 -6.64252364 84.27417075 -6.63842773 81.86987305 C-6.6273746 75.9616459 -6.61009777 70.0534653 -6.58959961 64.14526367 C-13.51959961 63.65026367 -13.51959961 63.65026367 -20.58959961 63.14526367 C-20.58959961 44.66526367 -20.58959961 26.18526367 -20.58959961 7.14526367 C-15.96959961 6.81526367 -11.34959961 6.48526367 -6.58959961 6.14526367 C-6.58959961 4.49526367 -6.58959961 2.84526367 -6.58959961 1.14526367 C-4.83682225 -0.60751369 -2.38023965 0.00857852 0 0 Z " fill="#1B76DA" transform="translate(25.589599609375,6.854736328125)"/>
<path d="M0 0 C5.22866463 -0.04984062 10.45718765 -0.08592606 15.68603516 -0.10986328 C17.46079928 -0.11985378 19.23554723 -0.13345081 21.01025391 -0.15087891 C39.15955016 -0.32450751 39.15955016 -0.32450751 48 2 C48 4.64 48 7.28 48 10 C43.71 10 39.42 10 35 10 C35 11.65 35 13.3 35 15 C35.66 15 36.32 15 37 15 C35.25 20.75 35.25 20.75 33 23 C33 18.71 33 14.42 33 10 C28.80879369 9.67921517 28.80879369 9.67921517 25 11 C22.43073294 14.76790001 20.6834481 18.77224966 19 23 C18.67 23 18.34 23 18 23 C18 20.69 18 18.38 18 16 C18.99 15.67 19.98 15.34 21 15 C21 13.35 21 11.7 21 10 C16.05 10 11.1 10 6 10 C6.66 11.98 7.32 13.96 8 16 C8.22705078 19.06787109 8.22705078 19.06787109 8.1953125 22.2734375 C8.18886719 23.42714844 8.18242187 24.58085938 8.17578125 25.76953125 C8.15902344 26.95933594 8.14226563 28.14914063 8.125 29.375 C8.11597656 30.58800781 8.10695313 31.80101563 8.09765625 33.05078125 C8.07416588 36.03405773 8.04131682 39.01692594 8 42 C10.97 42 13.94 42 17 42 C17.2475 41.319375 17.495 40.63875 17.75 39.9375 C19.24197908 36.43134917 21.06835511 33.28379632 23 30 C23.33 30 23.66 30 24 30 C24 33.96 24 37.92 24 42 C27.27617796 42.15990023 29.03021219 42.22046984 32 41 C34.75834105 37.72610272 36.51344912 34.02422889 38.375 30.1875 C38.89449219 29.17623047 39.41398437 28.16496094 39.94921875 27.12304688 C41.32779467 24.42823374 42.67048982 21.71925618 44 19 C44.66537654 17.66602238 45.33154933 16.33243984 46 15 C46.66 15 47.32 15 48 15 C48 25.89 48 36.78 48 48 C32.82 48 17.64 48 2 48 C-0.29854397 33.0594642 -0.29854397 33.0594642 -0.1953125 26.07421875 C-0.1924826 25.3157515 -0.18965271 24.55728424 -0.18673706 23.77583313 C-0.17576668 21.41287699 -0.15071201 19.05033656 -0.125 16.6875 C-0.11494009 15.06055245 -0.10581961 13.4335988 -0.09765625 11.80664062 C-0.07590427 7.87093975 -0.04154447 3.93553966 0 0 Z " fill="#EEF2FA" transform="translate(7,17)"/>
<path d="M0 0 C0.66 0 1.32 0 2 0 C2 17.49 2 34.98 2 53 C-10.21 53 -22.42 53 -35 53 C-35 69.5 -35 86 -35 103 C-7.28 103 20.44 103 49 103 C49 74.29 49 45.58 49 16 C52.67747382 19.67747382 53.22884648 22.54533451 53.25994873 27.75386047 C53.25432922 28.51401962 53.24870972 29.27417877 53.24291992 30.05737305 C53.24481827 30.86589722 53.24671661 31.67442139 53.24867249 32.50744629 C53.25237262 35.17563622 53.24168922 37.84355308 53.23046875 40.51171875 C53.22927669 42.36448637 53.22882384 44.2172546 53.2290802 46.07002258 C53.2275168 49.94947095 53.21923616 53.82882684 53.20581055 57.70825195 C53.18878536 62.69204276 53.18499729 67.67573228 53.18575573 72.65954876 C53.18548448 76.48296585 53.1800112 80.3063606 53.17275429 84.12977028 C53.16956301 85.96826826 53.16759915 87.80676879 53.16686058 89.64526939 C53.16470388 92.20716082 53.15597533 94.76894251 53.14526367 97.33081055 C53.14571686 98.09704239 53.14617004 98.86327423 53.14663696 99.65272522 C53.11447731 104.88552269 53.11447731 104.88552269 52 106 C49.23598592 106.10050214 46.49692774 106.13616075 43.73242188 106.12939453 C42.4325106 106.13202301 42.4325106 106.13202301 41.1063385 106.13470459 C38.22712227 106.13912425 35.34796691 106.13618472 32.46875 106.1328125 C30.47717273 106.13348551 28.48559554 106.1344555 26.49401855 106.13571167 C22.31420105 106.1371888 18.13440487 106.13503361 13.95458984 106.13037109 C8.58397474 106.1246738 3.2134096 106.12795273 -2.15720367 106.13394356 C-6.2714272 106.13754877 -10.38563879 106.13641077 -14.49986267 106.13381577 C-16.48070786 106.13314639 -18.46155412 106.1339753 -20.44239807 106.13629532 C-23.20576876 106.13882119 -25.96905734 106.13498218 -28.73242188 106.12939453 C-29.55947128 106.13141876 -30.38652069 106.13344299 -31.2386322 106.13552856 C-36.88573756 106.11426244 -36.88573756 106.11426244 -38 105 C-38.09326716 103.43452952 -38.11745582 101.86487228 -38.11352539 100.29663086 C-38.11344986 99.29566879 -38.11337433 98.29470673 -38.11329651 97.26341248 C-38.10813522 96.1748848 -38.10297394 95.08635712 -38.09765625 93.96484375 C-38.0962413 92.85645645 -38.09482635 91.74806915 -38.09336853 90.60609436 C-38.08775033 87.04986931 -38.07519475 83.49370617 -38.0625 79.9375 C-38.05748734 77.53320403 -38.05292403 75.12890708 -38.04882812 72.72460938 C-38.03777499 66.81638223 -38.02049816 60.90820163 -38 55 C-44.93 54.505 -44.93 54.505 -52 54 C-52.02476651 48.67977231 -52.04289156 43.35957838 -52.05493164 38.03930664 C-52.05995238 36.23038142 -52.06677029 34.42146024 -52.07543945 32.61254883 C-52.08760402 30.00861614 -52.09325098 27.40473723 -52.09765625 24.80078125 C-52.10539818 23.59268547 -52.10539818 23.59268547 -52.11329651 22.36018372 C-52.11368637 18.43527399 -51.97084755 14.83300018 -51 11 C-50.67 11 -50.34 11 -50 11 C-49.96241577 12.03386841 -49.96241577 12.03386841 -49.92407227 13.08862305 C-49.80621701 16.28835321 -49.68437142 19.48792038 -49.5625 22.6875 C-49.52318359 23.77095703 -49.48386719 24.85441406 -49.44335938 25.97070312 C-49.40146484 27.05673828 -49.35957031 28.14277344 -49.31640625 29.26171875 C-49.27974854 30.24100342 -49.24309082 31.22028809 -49.20532227 32.22924805 C-48.90059224 37.82562762 -48.42985856 43.41183873 -48 49 C-32.82 49 -17.64 49 -2 49 C-2.061875 43.555 -2.061875 43.555 -2.125 38 C-2.19472971 25.25221777 -1.28825176 12.67523241 0 0 Z " fill="#6586AB" transform="translate(57,16)"/>
<path d="M0 0 C10.56 0 21.12 0 32 0 C32 2.97 32 5.94 32 9 C29.03 8.505 29.03 8.505 26 8 C26 8.66 26 9.32 26 10 C27.32 10.33 28.64 10.66 30 11 C28.06729418 12.93270582 24.61358612 12.62663055 22 13 C21.67 13.33 21.34 13.66 21 14 C24.3 15.65 27.6 17.3 31 19 C31 19.33 31 19.66 31 20 C28.69 20 26.38 20 24 20 C24 21.32 24 22.64 24 24 C26.31 24.33 28.62 24.66 31 25 C31 25.33 31 25.66 31 26 C20.77 26 10.54 26 0 26 C0 17.42 0 8.84 0 0 Z " fill="#BDE4FE" transform="translate(69,39)"/>
<path d="M0 0 C3.33329641 4.44439522 3.42004493 6.81082147 3.35644531 12.05737305 C3.35848969 12.86589722 3.36053406 13.67442139 3.36264038 14.50744629 C3.36564491 17.17576828 3.34718501 19.84347038 3.328125 22.51171875 C3.32506739 24.36448514 3.32319128 26.21725382 3.32244873 28.07002258 C3.31784813 31.94952208 3.30342859 35.82881371 3.28125 39.70825195 C3.25290865 44.69204769 3.24203238 49.67568009 3.2375679 54.65954876 C3.23342118 58.48297269 3.22361095 62.3063633 3.21169281 66.12977028 C3.20597929 67.96826726 3.20122418 69.80676746 3.19742584 71.64526939 C3.19058685 74.20717444 3.1769674 76.76894734 3.16113281 79.33081055 C3.16001495 80.09704239 3.15889709 80.86327423 3.15774536 81.65272522 C3.11469039 86.88530961 3.11469039 86.88530961 2 88 C-0.76401408 88.10050214 -3.50307226 88.13616075 -6.26757812 88.12939453 C-7.5674894 88.13202301 -7.5674894 88.13202301 -8.8936615 88.13470459 C-11.77287773 88.13912425 -14.65203309 88.13618472 -17.53125 88.1328125 C-19.52282727 88.13348551 -21.51440446 88.1344555 -23.50598145 88.13571167 C-27.68579895 88.1371888 -31.86559513 88.13503361 -36.04541016 88.13037109 C-41.41602526 88.1246738 -46.7865904 88.12795273 -52.15720367 88.13394356 C-56.2714272 88.13754877 -60.38563879 88.13641077 -64.49986267 88.13381577 C-66.48070786 88.13314639 -68.46155412 88.1339753 -70.44239807 88.13629532 C-73.20576876 88.13882119 -75.96905734 88.13498218 -78.73242188 88.12939453 C-79.55947128 88.13141876 -80.38652069 88.13344299 -81.2386322 88.13552856 C-86.88573756 88.11426244 -86.88573756 88.11426244 -88 87 C-88.09340434 85.37325222 -88.11745171 83.74245949 -88.11352539 82.11303711 C-88.11344986 81.07203354 -88.11337433 80.03102997 -88.11329651 78.95848083 C-88.10813522 77.8262056 -88.10297394 76.69393036 -88.09765625 75.52734375 C-88.0962413 74.37456436 -88.09482635 73.22178497 -88.09336853 72.03407288 C-88.08775005 68.33518936 -88.07519442 64.63636536 -88.0625 60.9375 C-88.05748738 58.43684983 -88.05292406 55.93619871 -88.04882812 53.43554688 C-88.03777462 47.29034412 -88.02101852 41.14517631 -88 35 C-87.34 35 -86.68 35 -86 35 C-86 51.83 -86 68.66 -86 86 C-57.62 86 -29.24 86 0 86 C0 57.62 0 29.24 0 0 Z " fill="#000000" transform="translate(107,34)"/>
<path d="M0 0 C4.95 0 9.9 0 15 0 C15 1.65 15 3.3 15 5 C14.01 5.495 14.01 5.495 13 6 C13 7.65 13 9.3 13 11 C14.32 8.03 15.64 5.06 17 2 C19.64 2 22.28 2 25 2 C25.13536022 4.08153935 25.23215465 6.16561206 25.3125 8.25 C25.37050781 9.41015625 25.42851563 10.5703125 25.48828125 11.765625 C25 15 25 15 22.48046875 17.421875 C21.66191406 17.94265625 20.84335937 18.4634375 20 19 C19.67 17.68 19.34 16.36 19 15 C17.65869239 17.26645058 16.32683766 19.53760097 15 21.8125 C14.6184375 22.45509766 14.236875 23.09769531 13.84375 23.75976562 C11.56815731 27.62065524 11.56815731 27.62065524 11 32 C8.03 32 5.06 32 2 32 C1.97494385 31.21761963 1.9498877 30.43523926 1.92407227 29.62915039 C1.80850212 26.10675051 1.68560051 22.5846444 1.5625 19.0625 C1.52318359 17.83080078 1.48386719 16.59910156 1.44335938 15.33007812 C1.40146484 14.16025391 1.35957031 12.99042969 1.31640625 11.78515625 C1.27974854 10.70113525 1.24309082 9.61711426 1.20532227 8.50024414 C1.27635735 6.060737 1.27635735 6.060737 0 5 C0 3.35 0 1.7 0 0 Z " fill="#6298E6" transform="translate(13,27)"/>
<path d="M0 0 C1.1947142 -0.00637985 2.38942841 -0.0127597 3.62034607 -0.01933289 C4.92133743 -0.02044571 6.2223288 -0.02155853 7.56274414 -0.02270508 C8.90173886 -0.02591608 10.24073321 -0.02928003 11.57972717 -0.03279114 C14.39007379 -0.03878841 17.20038962 -0.04063043 20.01074219 -0.04003906 C23.61686399 -0.03993742 27.22278897 -0.05358878 30.8288641 -0.07081127 C33.59547334 -0.08191492 36.36203477 -0.08395878 39.12866402 -0.08342934 C41.10629354 -0.08518822 43.08390813 -0.09603985 45.06150818 -0.10697937 C46.25937454 -0.10390274 47.45724091 -0.10082611 48.69140625 -0.09765625 C50.27906044 -0.09979378 50.27906044 -0.09979378 51.89878845 -0.10197449 C54.41040039 0.14526367 54.41040039 0.14526367 56.41040039 2.14526367 C36.61040039 2.14526367 16.81040039 2.14526367 -3.58959961 2.14526367 C-3.58959961 4.12526367 -3.58959961 6.10526367 -3.58959961 8.14526367 C8.62040039 8.14526367 20.83040039 8.14526367 33.41040039 8.14526367 C32.75040039 8.47526367 32.09040039 8.80526367 31.41040039 9.14526367 C31.42200195 10.20745117 31.43360352 11.26963867 31.44555664 12.36401367 C31.55094769 26.30197988 31.55094769 26.30197988 30.41040039 33.14526367 C30.08040039 33.14526367 29.75040039 33.14526367 29.41040039 33.14526367 C29.41040039 26.21526367 29.41040039 19.28526367 29.41040039 12.14526367 C22.91942267 11.4961659 16.61521078 10.96806996 10.12133789 10.82885742 C9.29203766 10.80807632 8.46273743 10.78729523 7.60830688 10.7658844 C5.00074242 10.70133646 2.39309142 10.64195251 -0.21459961 10.58276367 C-1.99976423 10.53948794 -3.78492062 10.49587104 -5.57006836 10.4519043 C-9.90982709 10.34575477 -14.24967139 10.24423109 -18.58959961 10.14526367 C-18.58379883 10.83088379 -18.57799805 11.51650391 -18.57202148 12.22290039 C-18.56750977 13.12282715 -18.56299805 14.02275391 -18.55834961 14.94995117 C-18.55254883 15.84182129 -18.54674805 16.73369141 -18.54077148 17.65258789 C-18.5917122 20.25311159 -18.9191066 22.63091487 -19.58959961 25.14526367 C-19.91959961 25.14526367 -20.24959961 25.14526367 -20.58959961 25.14526367 C-20.58959961 19.20526367 -20.58959961 13.26526367 -20.58959961 7.14526367 C-15.96959961 6.81526367 -11.34959961 6.48526367 -6.58959961 6.14526367 C-6.58959961 4.49526367 -6.58959961 2.84526367 -6.58959961 1.14526367 C-4.83682225 -0.60751369 -2.38023965 0.00857852 0 0 Z " fill="#2F72C6" transform="translate(25.589599609375,6.854736328125)"/>
<path d="M0 0 C0 4.33333333 0 8.66666667 0 13 C-24.42 13 -48.84 13 -74 13 C-74 12.34 -74 11.68 -74 11 C-63.44 11 -52.88 11 -42 11 C-42 9.35 -42 7.7 -42 6 C-34.25 5.875 -34.25 5.875 -32 7 C-30.25742019 7.01619227 -28.51396573 6.96497633 -26.7734375 6.87890625 C-25.7421875 6.83056641 -24.7109375 6.78222656 -23.6484375 6.73242188 C-22.02808594 6.64831055 -22.02808594 6.64831055 -20.375 6.5625 C-18.74304688 6.48418945 -18.74304688 6.48418945 -17.078125 6.40429688 C-14.3851419 6.27437225 -11.69250664 6.13939838 -9 6 C-8.67 4.35 -8.34 2.7 -8 1 C-1.125 0 -1.125 0 0 0 Z " fill="#D7D9E6" transform="translate(101,58)"/>
<path d="M0 0 C7 1 7 1 9.3125 2.5625 C12.30272423 4.16192226 13.50128744 4.0889274 16.8125 3.9375 C22.25196265 3.73362209 25.35882612 5.24967474 30 8 C30 8.33 30 8.66 30 9 C27.69 9 25.38 9 23 9 C23 10.32 23 11.64 23 13 C25.31 13.33 27.62 13.66 30 14 C30 14.33 30 14.66 30 15 C20.1 15 10.2 15 0 15 C0 10.05 0 5.1 0 0 Z " fill="#4176A6" transform="translate(70,50)"/>
<path d="M0 0 C3.4836674 1.28413227 5.72723348 3.46961122 8.328125 6.0625 C9.52695313 7.25746094 9.52695313 7.25746094 10.75 8.4765625 C11.575 9.30929688 12.4 10.14203125 13.25 11 C14.09046875 11.83273438 14.9309375 12.66546875 15.796875 13.5234375 C16.5909375 14.32007813 17.385 15.11671875 18.203125 15.9375 C18.93176758 16.66839844 19.66041016 17.39929688 20.41113281 18.15234375 C22 20 22 20 22 22 C18.85343097 21.69463301 15.70791518 21.37951468 12.5625 21.0625 C11.66466797 20.97548828 10.76683594 20.88847656 9.84179688 20.79882812 C8.98779297 20.71181641 8.13378906 20.62480469 7.25390625 20.53515625 C6.46314697 20.456604 5.6723877 20.37805176 4.85766602 20.29711914 C3 20 3 20 2 19 C1.78933632 16.71195833 1.63135159 14.41896178 1.5 12.125 C1.22167685 6.97268808 1.22167685 6.97268808 0 2 C-0.66 1.67 -1.32 1.34 -2 1 C-1.34 0.67 -0.68 0.34 0 0 Z " fill="#B4B4B4" transform="translate(84,10)"/>
<path d="M0 0 C2.75717163 -0.38095093 2.75717163 -0.38095093 6.31396484 -0.38818359 C6.96132095 -0.39344055 7.60867706 -0.39869751 8.27565002 -0.40411377 C10.42098958 -0.41734397 12.56559005 -0.40856374 14.7109375 -0.3984375 C16.20065453 -0.40045788 17.69037059 -0.40336902 19.18008423 -0.40713501 C22.3056986 -0.41156283 25.43105608 -0.4051147 28.55664062 -0.39111328 C32.56062042 -0.37405043 36.56399568 -0.38384076 40.56795311 -0.40183067 C43.64607276 -0.41268165 46.72404962 -0.40921569 49.80217361 -0.4014473 C51.27814429 -0.39944737 52.75412798 -0.40189732 54.23008347 -0.40888596 C56.29615227 -0.41651909 58.36124949 -0.40487051 60.42724609 -0.38818359 C61.60257904 -0.38579681 62.77791199 -0.38341003 63.98886108 -0.38095093 C67 0 67 0 71 3 C46.91 3 22.82 3 -2 3 C-1.34 2.01 -0.68 1.02 0 0 Z " fill="#F3F8FE" transform="translate(30,76)"/>
<path d="M0 0 C6.93 0 13.86 0 21 0 C20.01 0.33 19.02 0.66 18 1 C18 1.66 18 2.32 18 3 C18.99 3 19.98 3 21 3 C21 3.99 21 4.98 21 6 C20.34 6 19.68 6 19 6 C19 6.66 19 7.32 19 8 C19.66 8.33 20.32 8.66 21 9 C16.18061476 9.23509196 12.53701494 8.45184478 8 7 C7.67 8.65 7.34 10.3 7 12 C4.03 11.505 4.03 11.505 1 11 C1 15.95 1 20.9 1 26 C0.67 26 0.34 26 0 26 C0 17.42 0 8.84 0 0 Z " fill="#AACDE2" transform="translate(69,39)"/>
<path d="M0 0 C4.29 0 8.58 0 13 0 C13 0.66 13 1.32 13 2 C12.01 2.66 11.02 3.32 10 4 C9.85358137 7.52531019 9.98249292 10.9238266 10.20507812 14.43945312 C10.41111377 20.17327435 9.22081707 23.24125854 6 28 C5.01 28 4.02 28 3 28 C2.98018066 27.3294458 2.96036133 26.6588916 2.93994141 25.96801758 C2.84440285 22.91579839 2.73484055 19.86423659 2.625 16.8125 C2.5940625 15.75740234 2.563125 14.70230469 2.53125 13.61523438 C2.49257813 12.59365234 2.45390625 11.57207031 2.4140625 10.51953125 C2.3826416 9.58214111 2.3512207 8.64475098 2.31884766 7.67895508 C2.06091899 4.5262466 2.06091899 4.5262466 0 0 Z " fill="#7FA9EC" transform="translate(14,29)"/>
<path d="M0 0 C19.8 0 39.6 0 60 0 C60 0.33 60 0.66 60 1 C62.97 1.33 65.94 1.66 69 2 C69 2.33 69 2.66 69 3 C62.24545119 3.02577224 55.49091547 3.04303976 48.73632812 3.05493164 C46.44791185 3.05989949 44.15949864 3.06667605 41.87109375 3.07543945 C27.54470752 3.12884923 13.30010361 2.89704327 -1 2 C-0.67 1.34 -0.34 0.68 0 0 Z " fill="#E9F1FE" transform="translate(30,106)"/>
<path d="M0 0 C2.43684804 0.00502577 4.87369708 0.00958677 7.31054688 0.01367188 C13.22788684 0.02459047 19.14518861 0.04124297 25.0625 0.0625 C25.0625 1.0525 25.0625 2.0425 25.0625 3.0625 C18.89591757 3.08766024 12.72936652 3.10557184 6.56274414 3.11743164 C4.47517373 3.12238796 2.38760664 3.12915497 0.30004883 3.13793945 C-13.81296725 3.19573788 -27.8472658 2.87856515 -41.9375 2.0625 C-41.9375 1.7325 -41.9375 1.4025 -41.9375 1.0625 C-27.97447082 -0.23288823 -14.0095773 -0.05050728 0 0 Z " fill="#E9F2FE" transform="translate(75.9375,100.9375)"/>
<path d="M0 0 C2.10073853 -0.36076355 2.10073853 -0.36076355 4.72509766 -0.34057617 C5.70596344 -0.34034958 6.68682922 -0.34012299 7.69741821 -0.33988953 C8.75891083 -0.32440567 9.82040344 -0.30892181 10.9140625 -0.29296875 C11.99883881 -0.28872391 13.08361511 -0.28447906 14.20126343 -0.28010559 C17.67609167 -0.263273 21.15034618 -0.22561189 24.625 -0.1875 C26.97655414 -0.17245911 29.32811735 -0.15876967 31.6796875 -0.14648438 C37.45332173 -0.11335454 43.22661989 -0.06310982 49 0 C49 0.33 49 0.66 49 1 C59.89 1.495 59.89 1.495 71 2 C71 2.33 71 2.66 71 3 C46.91 3 22.82 3 -2 3 C-1.34 2.01 -0.68 1.02 0 0 Z " fill="#F1F7FE" transform="translate(30,86)"/>
<path d="M0 0 C5.28360659 -0.02482718 10.56717878 -0.04292007 15.85083008 -0.05493164 C17.6460835 -0.05994225 19.44133287 -0.06675255 21.23657227 -0.07543945 C23.82569378 -0.0876489 26.41476107 -0.09326116 29.00390625 -0.09765625 C30.19651817 -0.10539818 30.19651817 -0.10539818 31.41322327 -0.11329651 C36.04898956 -0.11375707 40.4268467 0.23115689 45 1 C45 1.33 45 1.66 45 2 C30.81 2 16.62 2 2 2 C2 16.19 2 30.38 2 45 C1.67 45 1.34 45 1 45 C-0.20360791 35.61754464 -0.11303563 26.31467481 -0.0625 16.875 C-0.05747437 15.23437637 -0.05291335 13.59375124 -0.04882812 11.953125 C-0.03790805 7.96871258 -0.02070218 3.9843731 0 0 Z " fill="#77A4EC" transform="translate(7,17)"/>
<path d="M0 0 C0.33 0 0.66 0 1 0 C1.03758423 1.03386841 1.03758423 1.03386841 1.07592773 2.08862305 C1.7291681 20.06241785 1.7291681 20.06241785 3 38 C10.59 38 18.18 38 26 38 C26 38.33 26 38.66 26 39 C17.585 39.495 17.585 39.495 9 40 C9.99 40.99 10.98 41.98 12 43 C7.71 43 3.42 43 -1 43 C-1.02476651 37.67977231 -1.04289156 32.35957838 -1.05493164 27.03930664 C-1.05995238 25.23038142 -1.06677029 23.42146024 -1.07543945 21.61254883 C-1.08760402 19.00861614 -1.09325098 16.40473723 -1.09765625 13.80078125 C-1.10539818 12.59268547 -1.10539818 12.59268547 -1.11329651 11.36018372 C-1.11368637 7.43527399 -0.97084755 3.83300018 0 0 Z " fill="#2D70C3" transform="translate(6,27)"/>
<path d="M0 0 C4.95 0 9.9 0 15 0 C15 1.65 15 3.3 15 5 C14.01 5.495 14.01 5.495 13 6 C13 7.65 13 9.3 13 11 C14.32 8.69 15.64 6.38 17 4 C17.33 4.66 17.66 5.32 18 6 C16.92481882 8.44332726 15.80191434 10.76754523 14.5625 13.125 C14.22412109 13.78371094 13.88574219 14.44242188 13.53710938 15.12109375 C12.69850074 16.75106547 11.85015189 18.37601909 11 20 C10.67 20 10.34 20 10 20 C10 15.38 10 10.76 10 6 C11.32 5.34 12.64 4.68 14 4 C14 3.34 14 2.68 14 2 C9.71 2 5.42 2 1 2 C1.99 3.65 2.98 5.3 4 7 C4.34057617 9.67895508 4.34057617 9.67895508 4.29296875 12.51953125 C4.28330078 13.54111328 4.27363281 14.56269531 4.26367188 15.61523438 C4.23853516 16.67033203 4.21339844 17.72542969 4.1875 18.8125 C4.17396484 19.88693359 4.16042969 20.96136719 4.14648438 22.06835938 C4.11122577 24.71275455 4.06194366 27.35611748 4 30 C5.98 30 7.96 30 10 30 C10.33 30.66 10.66 31.32 11 32 C8.03 32 5.06 32 2 32 C1.97494385 31.21761963 1.9498877 30.43523926 1.92407227 29.62915039 C1.80850212 26.10675051 1.68560051 22.5846444 1.5625 19.0625 C1.52318359 17.83080078 1.48386719 16.59910156 1.44335938 15.33007812 C1.40146484 14.16025391 1.35957031 12.99042969 1.31640625 11.78515625 C1.27974854 10.70113525 1.24309082 9.61711426 1.20532227 8.50024414 C1.27635735 6.060737 1.27635735 6.060737 0 5 C0 3.35 0 1.7 0 0 Z " fill="#5888D5" transform="translate(13,27)"/>
<path d="M0 0 C1.1947142 -0.00637985 2.38942841 -0.0127597 3.62034607 -0.01933289 C4.92133743 -0.02044571 6.2223288 -0.02155853 7.56274414 -0.02270508 C8.90173886 -0.02591608 10.24073321 -0.02928003 11.57972717 -0.03279114 C14.39007379 -0.03878841 17.20038962 -0.04063043 20.01074219 -0.04003906 C23.61686399 -0.03993742 27.22278897 -0.05358878 30.8288641 -0.07081127 C33.59547334 -0.08191492 36.36203477 -0.08395878 39.12866402 -0.08342934 C41.10629354 -0.08518822 43.08390813 -0.09603985 45.06150818 -0.10697937 C46.25937454 -0.10390274 47.45724091 -0.10082611 48.69140625 -0.09765625 C50.27906044 -0.09979378 50.27906044 -0.09979378 51.89878845 -0.10197449 C54.41040039 0.14526367 54.41040039 0.14526367 56.41040039 2.14526367 C36.28040039 2.14526367 16.15040039 2.14526367 -4.58959961 2.14526367 C-4.58959961 4.12526367 -4.58959961 6.10526367 -4.58959961 8.14526367 C-5.24959961 7.81526367 -5.90959961 7.48526367 -6.58959961 7.14526367 C-6.63214317 5.14571621 -6.63040744 3.14484731 -6.58959961 1.14526367 C-4.83682225 -0.60751369 -2.38023965 0.00857852 0 0 Z " fill="#000000" transform="translate(25.589599609375,6.854736328125)"/>
<path d="M0 0 C4.29 0 8.58 0 13 0 C13 1.65 13 3.3 13 5 C12.34 5 11.68 5 11 5 C10.78472656 5.77730469 10.56945312 6.55460937 10.34765625 7.35546875 C8.52282939 12.2904353 6.00366843 16.7288829 3.4375 21.3125 C2.93025391 22.23095703 2.42300781 23.14941406 1.90039062 24.09570312 C-1.84700737 30.84700737 -1.84700737 30.84700737 -3 32 C-5.33297433 32.04092937 -7.66705225 32.04241723 -10 32 C-10 31.34 -10 30.68 -10 30 C-7.69 30 -5.38 30 -3 30 C-2.72816895 29.12134277 -2.45633789 28.24268555 -2.17626953 27.33740234 C-1.07269729 24.20626233 0.21684559 21.50144947 1.8203125 18.6015625 C2.35527344 17.62832031 2.89023437 16.65507813 3.44140625 15.65234375 C3.99699219 14.65332031 4.55257812 13.65429688 5.125 12.625 C5.68832031 11.60277344 6.25164063 10.58054687 6.83203125 9.52734375 C8.2169331 7.01574208 9.60636455 4.50676281 11 2 C8.03 2 5.06 2 2 2 C2.38929687 2.70511719 2.77859375 3.41023438 3.1796875 4.13671875 C4 7 4 7 2.8828125 9.89453125 C2.30273438 10.85746094 1.72265625 11.82039063 1.125 12.8125 C0.55007812 13.78832031 -0.02484375 14.76414062 -0.6171875 15.76953125 C-1.07351562 16.50558594 -1.52984375 17.24164063 -2 18 C-2.33 16.68 -2.66 15.36 -3 14 C-2.34 14 -1.68 14 -1 14 C-0.87625 13.2575 -0.7525 12.515 -0.625 11.75 C-0.04513299 9.19858515 0.73708739 7.2732427 2 5 C1.34 5 0.68 5 0 5 C0 3.35 0 1.7 0 0 Z " fill="#12427F" transform="translate(42,27)"/>
<path d="M0 0 C2.14082246 4.28164492 2.2351031 6.25783396 2.1953125 10.953125 C2.1924826 11.61334656 2.18965271 12.27356812 2.18673706 12.95379639 C2.17558415 15.05271897 2.15048946 17.15120742 2.125 19.25 C2.11496384 20.67707715 2.1058391 22.10416102 2.09765625 23.53125 C2.07736623 27.02113323 2.03821077 30.51008338 2 34 C-5.92 33.67 -13.84 33.34 -22 33 C-22 32.67 -22 32.34 -22 32 C-14.74 32 -7.48 32 0 32 C0 21.44 0 10.88 0 0 Z " fill="#083A8A" transform="translate(57,35)"/>
<path d="M0 0 C6.6 0 13.2 0 20 0 C19.01 0.33 18.02 0.66 17 1 C16.26676204 3.01508358 16.26676204 3.01508358 16 5 C15.09636719 5.06058594 14.19273438 5.12117188 13.26171875 5.18359375 C12.08222656 5.26738281 10.90273437 5.35117187 9.6875 5.4375 C7.92986328 5.55931641 7.92986328 5.55931641 6.13671875 5.68359375 C2.97409042 5.8867371 2.97409042 5.8867371 0 7 C0 4.69 0 2.38 0 0 Z " fill="#4E96FE" transform="translate(70,39)"/>
<path d="M0 0 C0.33 0 0.66 0 1 0 C1 8.91 1 17.82 1 27 C-2.3 26.34 -5.6 25.68 -9 25 C-9 24.01 -9 23.02 -9 22 C-6.36 22 -3.72 22 -1 22 C-1 16.39 -1 10.78 -1 5 C-3.64 5 -6.28 5 -9 5 C-9 4.01 -9 3.02 -9 2 C-6.94921875 1.77213542 -4.8984375 1.54427083 -2.84765625 1.31640625 C-0.98859771 1.18113386 -0.98859771 1.18113386 0 0 Z " fill="#FAFBFE" transform="translate(68,39)"/>
<path d="M0 0 C1.32 0.33 2.64 0.66 4 1 C-0.62 9.58 -5.24 18.16 -10 27 C-10.66 26.67 -11.32 26.34 -12 26 C-10.08321013 19.56404235 -7.54251139 13.81539951 -4.3125 7.9375 C-3.89677734 7.16728516 -3.48105469 6.39707031 -3.05273438 5.60351562 C-2.0415352 3.732216 -1.02168617 1.86559466 0 0 Z " fill="#0C6DD4" transform="translate(49,30)"/>
<path d="M0 0 C0.33 0 0.66 0 1 0 C1 1.98 1 3.96 1 6 C3.97 6 6.94 6 10 6 C10 6.33 10 6.66 10 7 C1.98340366 8.12513633 -5.92138585 8.09579384 -14 8 C-13.98839844 8.66386719 -13.97679687 9.32773437 -13.96484375 10.01171875 C-13.87521968 18.78207381 -13.87521968 18.78207381 -15 23 C-15.33 23 -15.66 23 -16 23 C-16 17.06 -16 11.12 -16 5 C-2.25 4.875 -2.25 4.875 0 6 C0 4.02 0 2.04 0 0 Z " fill="#578FE4" transform="translate(21,9)"/>
<path d="M0 0 C6.45688073 0.63302752 6.45688073 0.63302752 9.3125 2.5625 C12.89121491 4.47669635 15.71214375 4.1030655 19.6953125 3.8125 C22 4 22 4 23.8046875 5.5 C24.19914062 5.995 24.59359375 6.49 25 7 C22.77308629 7.25011345 20.54324878 7.47428352 18.3125 7.6875 C17.07113281 7.81511719 15.82976562 7.94273438 14.55078125 8.07421875 C10.63583479 7.99238819 9.15310462 7.18965599 6 5 C2.80604974 4.28598768 2.80604974 4.28598768 0 4 C0 2.68 0 1.36 0 0 Z " fill="#4B8065" transform="translate(70,50)"/>
<path d="M0 0 C5.45388828 -0.38050383 5.45388828 -0.38050383 8.1640625 1.5078125 C12.0848911 3.57083802 15.34069635 3.25790339 19.6875 3.0625 C22.479026 2.95289121 25.2019913 2.93275423 28 3 C28.66 3.66 29.32 4.32 30 5 C20.1 5 10.2 5 0 5 C0 3.35 0 1.7 0 0 Z " fill="#3C755C" transform="translate(70,54)"/>
<path d="M0 0 C0 2.64 0 5.28 0 8 C-10.23 8 -20.46 8 -31 8 C-31 7.67 -31 7.34 -31 7 C-23.74 6.67 -16.48 6.34 -9 6 C-8.67 4.35 -8.34 2.7 -8 1 C-1.125 0 -1.125 0 0 0 Z " fill="#A3BBD4" transform="translate(101,58)"/>
<path d="M0 0 C2.97 0.495 2.97 0.495 6 1 C6 3.64 6 6.28 6 9 C2.10885099 10.01911045 0.39403493 10.16782969 -3.375 8.5625 C-4.24125 8.046875 -5.1075 7.53125 -6 7 C-5.34 6.01 -4.68 5.02 -4 4 C-0.375 3.3125 -0.375 3.3125 3 3 C2.01 2.67 1.02 2.34 0 2 C0 1.34 0 0.68 0 0 Z " fill="#DBEEFC" transform="translate(95,47)"/>
<path d="M0 0 C0.66 0 1.32 0 2 0 C2.28580155 4.03932853 2.45551292 7.97005043 2 12 C-0.5 14.75 -0.5 14.75 -3 16 C-4.4263113 13.73468205 -5.02103297 12.38911 -4.875 9.6875 C-3.70989146 6.10895235 -1.95484431 3.21603419 0 0 Z " fill="#5090E4" transform="translate(36,30)"/>
<path d="M0 0 C3.63 0 7.26 0 11 0 C11 2.97 11 5.94 11 9 C8.0625 8.625 8.0625 8.625 5 8 C4.67 7.34 4.34 6.68 4 6 C3.67 6 3.34 6 3 6 C3 4.35 3 2.7 3 1 C2.01 0.67 1.02 0.34 0 0 Z " fill="#89CAFE" transform="translate(90,39)"/>
<path d="M0 0 C2.64 0 5.28 0 8 0 C9.125 4.75 9.125 4.75 8 7 C5.36 7 2.72 7 0 7 C0 4.69 0 2.38 0 0 Z " fill="#E4E5ED" transform="translate(59,44)"/>
<path d="M0 0 C3.73584906 1.47169811 3.73584906 1.47169811 5 4 C4.34 4 3.68 4 3 4 C3.33 8.62 3.66 13.24 4 18 C6.248125 18.165 8.49625 18.33 10.8125 18.5 C12.07707031 18.5928125 13.34164062 18.685625 14.64453125 18.78125 C16.75978517 18.91914781 18.88025592 19 21 19 C21.33 19.99 21.66 20.98 22 22 C18.85343097 21.69463301 15.70791518 21.37951468 12.5625 21.0625 C11.66466797 20.97548828 10.76683594 20.88847656 9.84179688 20.79882812 C8.98779297 20.71181641 8.13378906 20.62480469 7.25390625 20.53515625 C6.46314697 20.456604 5.6723877 20.37805176 4.85766602 20.29711914 C3 20 3 20 2 19 C1.78933632 16.71195833 1.63135159 14.41896178 1.5 12.125 C1.22167685 6.97268808 1.22167685 6.97268808 0 2 C-0.66 1.67 -1.32 1.34 -2 1 C-1.34 0.67 -0.68 0.34 0 0 Z " fill="#9B9C9E" transform="translate(84,10)"/>
<path d="M0 0 C12.71362727 -0.11185009 25.31799345 0.06921053 38 1 C38 1.33 38 1.66 38 2 C33.23174675 2.21739641 28.46325138 2.41418227 23.69335938 2.59204102 C22.07138433 2.65540954 20.44961769 2.72437245 18.828125 2.79907227 C16.49511635 2.90557297 14.16209419 2.99182657 11.828125 3.07421875 C11.10506165 3.11157639 10.38199829 3.14893402 9.63702393 3.18742371 C6.35936701 3.28495974 4.35271549 3.21319984 1.51074219 1.49536133 C1.01219727 1.00189209 0.51365234 0.50842285 0 0 Z " fill="#16509F" transform="translate(14,67)"/>
<path d="M0 0 C0.33 0 0.66 0 1 0 C1.05382106 2.62527189 1.09358313 5.24944713 1.125 7.875 C1.14175781 8.62136719 1.15851562 9.36773437 1.17578125 10.13671875 C1.1933959 12.09194461 1.10320189 14.04742021 1 16 C0.34 16.66 -0.32 17.32 -1 18 C-1.33 14.7 -1.66 11.4 -2 8 C-3.98 10.97 -5.96 13.94 -8 17 C-8.33 16.34 -8.66 15.68 -9 15 C-7.61511707 12.37756211 -6.18421246 9.8901582 -4.625 7.375 C-4.19960938 6.66859375 -3.77421875 5.9621875 -3.3359375 5.234375 C-2.25843265 3.46808541 -1.1330578 1.73117753 0 0 Z " fill="#2B66B5" transform="translate(32,41)"/>
<path d="M0 0 C3.93089159 3.2633817 6.91174115 5.88232154 10 10 C6.7 10 3.4 10 0 10 C0 6.7 0 3.4 0 0 Z " fill="#F8F8F8" transform="translate(88,18)"/>
<path d="M0 0 C3.96 0 7.92 0 12 0 C12.18451025 15.74487472 12.18451025 15.74487472 11 23 C10.67 23 10.34 23 10 23 C10 16.07 10 9.14 10 2 C6.7 1.67 3.4 1.34 0 1 C0 0.67 0 0.34 0 0 Z " fill="#3B80DA" transform="translate(45,17)"/>
<path d="M0 0 C0.33 0 0.66 0 1 0 C1.33 4.29 1.66 8.58 2 13 C9.59 13 17.18 13 25 13 C25 13.33 25 13.66 25 14 C12.625 14.495 12.625 14.495 0 15 C0 10.05 0 5.1 0 0 Z " fill="#4788E1" transform="translate(7,52)"/>
<path d="M0 0 C2.64 0 5.28 0 8 0 C8.33 4.62 8.66 9.24 9 14 C8.34 14 7.68 14 7 14 C7.33 15.65 7.66 17.3 8 19 C7.34 19 6.68 19 6 19 C6 13.39 6 7.78 6 2 C3.69 2.33 1.38 2.66 -1 3 C-0.67 2.01 -0.34 1.02 0 0 Z " fill="#2F6BBB" transform="translate(32,27)"/>
<path d="M0 0 C0 1.32 0 2.64 0 4 C2.31 4.33 4.62 4.66 7 5 C7 5.33 7 5.66 7 6 C3.7 6 0.4 6 -3 6 C-3 5.34 -3 4.68 -3 4 C-3.94875 4.020625 -4.8975 4.04125 -5.875 4.0625 C-9 4 -9 4 -11 3 C-11 2.34 -11 1.68 -11 1 C-7.27569643 0.30710631 -3.78916254 -0.11144596 0 0 Z " fill="#6892BA" transform="translate(93,59)"/>
<path d="M0 0 C5.94 0 11.88 0 18 0 C18 0.33 18 0.66 18 1 C14.37 1 10.74 1 7 1 C6.67 1.99 6.34 2.98 6 4 C6.66 4.66 7.32 5.32 8 6 C5.36 6 2.72 6 0 6 C0 4.02 0 2.04 0 0 Z " fill="#295886" transform="translate(70,59)"/>
<path d="M0 0 C2.475 0.99 2.475 0.99 5 2 C5 2.66 5 3.32 5 4 C4.01 4.495 4.01 4.495 3 5 C4.98 5.66 6.96 6.32 9 7 C9 6.01 9 5.02 9 4 C10.65 4 12.3 4 14 4 C13.01 4.33 12.02 4.66 11 5 C11.33 5.99 11.66 6.98 12 8 C9.375 9.25 9.375 9.25 6 10 C2.625 8.5 2.625 8.5 0 6 C-0.375 2.75 -0.375 2.75 0 0 Z " fill="#D5F2FD" transform="translate(76,45)"/>
<path d="M0 0 C0.66 0.33 1.32 0.66 2 1 C2.875 3.6875 2.875 3.6875 3 7 C1.1875 10.1875 1.1875 10.1875 -1 13 C-1.66 13.99 -2.32 14.98 -3 16 C-3.55353075 4.29384966 -3.55353075 4.29384966 0 0 Z " fill="#3384E2" transform="translate(36,41)"/>
<path d="M0 0 C3.63 0.33 7.26 0.66 11 1 C11 1.33 11 1.66 11 2 C8.03 2 5.06 2 2 2 C2.38929687 2.70511719 2.77859375 3.41023438 3.1796875 4.13671875 C4 7 4 7 2.8828125 9.89453125 C2.30273438 10.85746094 1.72265625 11.82039063 1.125 12.8125 C0.55007812 13.78832031 -0.02484375 14.76414062 -0.6171875 15.76953125 C-1.07351562 16.50558594 -1.52984375 17.24164063 -2 18 C-2.33 16.68 -2.66 15.36 -3 14 C-2.34 14 -1.68 14 -1 14 C-0.87625 13.2575 -0.7525 12.515 -0.625 11.75 C-0.04513299 9.19858515 0.73708739 7.2732427 2 5 C1.34 5 0.68 5 0 5 C0 3.35 0 1.7 0 0 Z " fill="#1C5499" transform="translate(42,27)"/>
<path d="M0 0 C0.33 0.66 0.66 1.32 1 2 C-0.07518118 4.44332726 -1.19808566 6.76754523 -2.4375 9.125 C-2.77587891 9.78371094 -3.11425781 10.44242188 -3.46289062 11.12109375 C-4.30149926 12.75106547 -5.14984811 14.37601909 -6 16 C-6.33 16 -6.66 16 -7 16 C-7 11.38 -7 6.76 -7 2 C-6.01 2.495 -6.01 2.495 -5 3 C-4.375 5.0625 -4.375 5.0625 -4 7 C-2.68 4.69 -1.36 2.38 0 0 Z " fill="#497ED0" transform="translate(30,31)"/>
<path d="M0 0 C0.99 0 1.98 0 3 0 C3 0.99 3 1.98 3 3 C2.34 3 1.68 3 1 3 C1 3.66 1 4.32 1 5 C1.66 5.33 2.32 5.66 3 6 C-2.23175837 6.38281159 -5.37802694 5.21854707 -10 3 C-10 2.67 -10 2.34 -10 2 C-9.04287109 1.90912109 -9.04287109 1.90912109 -8.06640625 1.81640625 C-6.82697266 1.69072266 -6.82697266 1.69072266 -5.5625 1.5625 C-4.73878906 1.48128906 -3.91507812 1.40007813 -3.06640625 1.31640625 C-1.01337975 1.21069185 -1.01337975 1.21069185 0 0 Z " fill="#87BCFF" transform="translate(87,42)"/>
<path d="M0 0 C2.64 0 5.28 0 8 0 C8 0.99 8 1.98 8 3 C4.77208445 5.1519437 3.71599191 5.20086443 0 5 C0 3.35 0 1.7 0 0 Z " fill="#E6E9F1" transform="translate(59,64)"/>
<path d="M0 0 C2.875 -0.125 2.875 -0.125 6 0 C8 2 8 2 8 5 C5.36 5 2.72 5 0 5 C0 3.35 0 1.7 0 0 Z " fill="#294F40" transform="translate(70,54)"/>
<path d="M0 0 C4.55737263 0.43820891 7.57653445 0.85041169 11 4 C8.00468461 4.99843846 6.82744268 5.00732761 3.8125 4.5625 C2.554375 4.376875 1.29625 4.19125 0 4 C0 2.68 0 1.36 0 0 Z " fill="#59827E" transform="translate(70,50)"/>
<path d="M0 0 C0.33 0 0.66 0 1 0 C1 2.97 1 5.94 1 9 C-1.97 8.505 -1.97 8.505 -5 8 C-4.34 6.35 -3.68 4.7 -3 3 C-2.34 3 -1.68 3 -1 3 C-0.67 2.01 -0.34 1.02 0 0 Z " fill="#9DCFFB" transform="translate(100,39)"/>
<path d="M0 0 C1.1171875 1.703125 1.1171875 1.703125 2 4 C1.3203125 6.359375 1.3203125 6.359375 0.125 8.75 C-0.26429687 9.54921875 -0.65359375 10.3484375 -1.0546875 11.171875 C-1.36664062 11.77515625 -1.67859375 12.3784375 -2 13 C-2.33 13 -2.66 13 -3 13 C-3 10.69 -3 8.38 -3 6 C-2.01 5.67 -1.02 5.34 0 5 C0 3.35 0 1.7 0 0 Z " fill="#D5E0F3" transform="translate(28,27)"/>
<path d="M0 0 C0.99 0.66 1.98 1.32 3 2 C3 2.66 3 3.32 3 4 C-2.94 3.34 -8.88 2.68 -15 2 C-15 1.67 -15 1.34 -15 1 C-14.00097656 1.01160156 -13.00195312 1.02320312 -11.97265625 1.03515625 C-10.68230469 1.04417969 -9.39195313 1.05320312 -8.0625 1.0625 C-6.13083984 1.07990234 -6.13083984 1.07990234 -4.16015625 1.09765625 C-1.13701597 1.36532549 -1.13701597 1.36532549 0 0 Z " fill="#8A8B8E" transform="translate(103,28)"/>
<path d="M0 0 C3.96 0 7.92 0 12 0 C11.67 3.3 11.34 6.6 11 10 C10.67 10 10.34 10 10 10 C10 7.36 10 4.72 10 2 C6.7 1.67 3.4 1.34 0 1 C0 0.67 0 0.34 0 0 Z " fill="#4E8BE5" transform="translate(45,17)"/>
<path d="M0 0 C-1.32 0.33 -2.64 0.66 -4 1 C-4 1.99 -4 2.98 -4 4 C-6.31 3.67 -8.62 3.34 -11 3 C-11 2.34 -11 1.68 -11 1 C-7.27569643 0.30710631 -3.78916254 -0.11144596 0 0 Z " fill="#5D89B1" transform="translate(93,59)"/>
<path d="M0 0 C2 2 2 2 2.375 4.4375 C2 7 2 7 0 8.8125 C-0.66 9.204375 -1.32 9.59625 -2 10 C-2.17942163 6.05272412 -2.09350689 3.4019487 0 0 Z " fill="#4188E1" transform="translate(36,35)"/>
<path d="M0 0 C0.99 1.32 1.98 2.64 3 4 C1.69593116 6.01920337 0.36176581 8.01924973 -1 10 C-1.33 10 -1.66 10 -2 10 C-2.17942163 6.05272412 -2.09350689 3.4019487 0 0 Z " fill="#297CDA" transform="translate(36,44)"/>
<path d="M0 0 C2.475 0.99 2.475 0.99 5 2 C5 2.66 5 3.32 5 4 C4.01 4.495 4.01 4.495 3 5 C3.33 5.99 3.66 6.98 4 8 C2.68 7.34 1.36 6.68 0 6 C0 4.02 0 2.04 0 0 Z " fill="#C9ECFC" transform="translate(76,45)"/>
<path d="M0 0 C3.63 0.33 7.26 0.66 11 1 C11 1.33 11 1.66 11 2 C8.03 2 5.06 2 2 2 C2 4.97 2 7.94 2 11 C1.67 11 1.34 11 1 11 C0.67 7.37 0.34 3.74 0 0 Z " fill="#9DBCF2" transform="translate(7,17)"/>
<path d="M0 0 C0 0.33 0 0.66 0 1 C-8.57142857 1.28571429 -8.57142857 1.28571429 -12 -1 C-7.28400182 -1.92470553 -4.32734391 -2.22923777 0 0 Z " fill="#76A7C3" transform="translate(95,56)"/>
<path d="M0 0 C0 0.99 0 1.98 0 3 C-2.3125 3.625 -2.3125 3.625 -5 4 C-5.99 3.34 -6.98 2.68 -8 2 C-6.03177114 0.03177114 -2.65191291 0.33751619 0 0 Z " fill="#CEEFFF" transform="translate(98,50)"/>
<path d="M0 0 C0.99 0 1.98 0 3 0 C3 0.99 3 1.98 3 3 C2.34 3 1.68 3 1 3 C1 3.66 1 4.32 1 5 C1.66 5.33 2.32 5.66 3 6 C1.02 6 -0.96 6 -3 6 C-2 4 -1 2 0 0 Z " fill="#94CDFF" transform="translate(87,42)"/>
<path d="M0 0 C3.63 0.33 7.26 0.66 11 1 C11 1.33 11 1.66 11 2 C10.37351562 2.04898437 9.74703125 2.09796875 9.1015625 2.1484375 C8.28429688 2.22320313 7.46703125 2.29796875 6.625 2.375 C5.81289063 2.44460937 5.00078125 2.51421875 4.1640625 2.5859375 C1.79665809 2.82892588 1.79665809 2.82892588 0 5 C0 3.35 0 1.7 0 0 Z " fill="#1A5CAC" transform="translate(42,27)"/>
<path d="M0 0 C0.33 0 0.66 0 1 0 C1 1.98 1 3.96 1 6 C3.97 6 6.94 6 10 6 C10 6.33 10 6.66 10 7 C8.37675914 7.22162329 6.751279 7.42689803 5.125 7.625 C3.76761719 7.79902344 3.76761719 7.79902344 2.3828125 7.9765625 C1.59648437 7.98429687 0.81015625 7.99203125 0 8 C-0.66 7.34 -1.32 6.68 -2 6 C-1.34 6 -0.68 6 0 6 C0 4.02 0 2.04 0 0 Z " fill="#6A92CA" transform="translate(21,9)"/>
<path d="M0 0 C1.32 0 2.64 0 4 0 C4 0.66 4 1.32 4 2 C5.32 2 6.64 2 8 2 C7.67 2.66 7.34 3.32 7 4 C4.36 3.67 1.72 3.34 -1 3 C-0.67 2.01 -0.34 1.02 0 0 Z " fill="#87A5C6" transform="translate(93,61)"/>
<path d="M0 0 C1.32 0.33 2.64 0.66 4 1 C3.67 2.32 3.34 3.64 3 5 C1.35 5 -0.3 5 -2 5 C-1.67 4.34 -1.34 3.68 -1 3 C-0.34 3 0.32 3 1 3 C0.67 2.01 0.34 1.02 0 0 Z " fill="#B0DDFF" transform="translate(80,46)"/>
<path d="M0 0 C4.29 0 8.58 0 13 0 C13 0.33 13 0.66 13 1 C9.7 1 6.4 1 3 1 C3 1.66 3 2.32 3 3 C2.01 2.67 1.02 2.34 0 2 C0 1.34 0 0.68 0 0 Z " fill="#97B9F3" transform="translate(14,29)"/>
<path d="M0 0 C1.98 0 3.96 0 6 0 C5.67 0.99 5.34 1.98 5 3 C3.35 3 1.7 3 0 3 C0 2.01 0 1.02 0 0 Z " fill="#336597" transform="translate(71,60)"/>
<path d="M0 0 C0.33 0 0.66 0 1 0 C1 2.31 1 4.62 1 7 C1.99 7.33 2.98 7.66 4 8 C3.67 8.66 3.34 9.32 3 10 C2.01 10 1.02 10 0 10 C0 6.7 0 3.4 0 0 Z " fill="#BFDEFC" transform="translate(69,39)"/>
<path d="" fill="#000000" transform="translate(0,0)"/>
<path d="" fill="#000000" transform="translate(0,0)"/>
<path d="" fill="#000000" transform="translate(0,0)"/>
<path d="" fill="#000000" transform="translate(0,0)"/>
<path d="" fill="#000000" transform="translate(0,0)"/>
<path d="" fill="#000000" transform="translate(0,0)"/>
<path d="" fill="#000000" transform="translate(0,0)"/>
<path d="" fill="#000000" transform="translate(0,0)"/>
<path d="" fill="#000000" transform="translate(0,0)"/>
<path d="" fill="#000000" transform="translate(0,0)"/>
<path d="" fill="#000000" transform="translate(0,0)"/>
<path d="" fill="#000000" transform="translate(0,0)"/>
<path d="" fill="#000000" transform="translate(0,0)"/>
<path d="" fill="#000000" transform="translate(0,0)"/>
<path d="" fill="#000000" transform="translate(0,0)"/>
<path d="" fill="#000000" transform="translate(0,0)"/>
<path d="" fill="#000000" transform="translate(0,0)"/>
<path d="" fill="#000000" transform="translate(0,0)"/>
<path d="" fill="#000000" transform="translate(0,0)"/>
<path d="" fill="#000000" transform="translate(0,0)"/>
</svg>
